<svg xmlns="http://www.w3.org/2000/svg" viewBox="0 0 1200 600" preserveAspectRatio="xMidYMid slice">
  <defs>
    <linearGradient id="g1" x1="0" x2="1" y1="0" y2="1">
      <stop offset="0%" stop-color="#0ea5a4" />
      <stop offset="100%" stop-color="#3b82f6" />
    </linearGradient>
    <filter id="f1" x="-20%" y="-20%" width="140%" height="140%">
      <feGaussianBlur stdDeviation="40" />
    </filter>
  </defs>
  <rect width="1200" height="600" fill="url(#g1)" />
  <g filter="url(#f1)">
    <circle cx="200" cy="150" r="180" fill="#ffffff22" />
    <circle cx="950" cy="420" r="220" fill="#ffffff11" />
  </g>

  <g transform="translate(120,120)">
    <rect x="0" y="0" width="420" height="260" rx="18" fill="#fff" opacity="0.08" />
    <rect x="20" y="20" width="380" height="18" rx="9" fill="#ffffffaa" />
    <rect x="20" y="52" width="300" height="14" rx="7" fill="#ffffff88" />
    <rect x="20" y="80" width="360" height="12" rx="6" fill="#ffffff66" />

    <rect x="460" y="30" width="320" height="200" rx="12" fill="#fff" opacity="0.06" />
    <g transform="translate(480,46)" fill="#fff" opacity="0.9">
      <rect x="0" y="0" width="24" height="10" rx="3" />
      <rect x="32" y="0" width="140" height="10" rx="3" />
      <rect x="0" y="24" width="260" height="10" rx="3" />
      <rect x="0" y="48" width="180" height="10" rx="3" />
    </g>
  </g>

  <g transform="translate(780,60) scale(0.9)" opacity="0.95">
    <g fill="#fff" transform="translate(-40,160)">
      <rect x="0" y="0" width="160" height="220" rx="16" fill="#ffffff22" />
      <rect x="-8" y="12" width="176" height="28" rx="8" fill="#ffffff44" />
      <rect x="24" y="54" width="110" height="16" rx="6" fill="#ffffff66" />
    </g>
  </g>

  <text x="80" y="360" font-family="Montserrat, sans-serif" font-size="48" fill="#ffffff" font-weight="600">Desenvolvedor Full Stack</text>
  <text x="80" y="410" font-family="Montserrat, sans-serif" font-size="20" fill="#ffffffcc">Python • React • Node.js • DSM - FATEC SJC</text>
</svg>
